<?xml version="1.0" standalone="no"?>
<!DOCTYPE svg PUBLIC "-//W3C//DTD SVG 20010904//EN"
 "http://www.w3.org/TR/2001/REC-SVG-20010904/DTD/svg10.dtd">
<svg version="1.0" xmlns="http://www.w3.org/2000/svg"
 width="700.000000pt" height="700.000000pt" viewBox="0 0 700.000000 700.000000"
 preserveAspectRatio="xMidYMid meet">
<metadata>
Created by potrace 1.11, written by Peter Selinger 2001-2013
</metadata>
<g transform="translate(0.000000,700.000000) scale(0.100000,-0.100000)"
fill="#000000" stroke="none">
<path d="M5684 6905 c-16 -24 -16 -27 2 -46 10 -11 23 -18 30 -15 7 3 17 -1
22 -7 7 -9 -8 -25 -56 -57 -37 -25 -94 -66 -128 -92 -34 -27 -68 -48 -75 -48
-10 0 -10 3 -1 12 16 16 15 40 -2 63 -12 16 -17 17 -44 6 -16 -7 -32 -21 -35
-31 -7 -27 19 -59 42 -53 42 11 27 -16 -33 -60 -61 -43 -93 -53 -61 -18 22 25
-2 67 -35 63 -34 -5 -50 -20 -50 -48 0 -25 12 -36 41 -38 35 -2 25 -18 -38
-63 -43 -31 -63 -40 -63 -30 0 9 6 17 12 19 10 4 10 10 1 31 -15 33 -52 36
-78 7 -15 -17 -16 -24 -6 -46 8 -19 17 -25 31 -21 41 11 28 -13 -30 -58 -58
-44 -89 -55 -60 -20 18 21 -2 65 -30 65 -22 0 -60 -33 -60 -53 0 -20 22 -37
47 -37 32 0 29 -15 -10 -39 -68 -42 -78 -60 -74 -142 3 -41 1 -83 -3 -95 -5
-11 -146 -198 -315 -415 -169 -217 -319 -409 -334 -428 -14 -19 -35 -46 -47
-60 -22 -27 -460 -590 -524 -672 -279 -363 -557 -713 -576 -725 -35 -24 -68
-11 -89 33 -120 257 -171 319 -305 374 -145 59 -351 -55 -446 -246 -22 -44
-53 -123 -68 -175 -89 -302 -112 -354 -199 -443 -68 -69 -133 -113 -352 -232
-332 -181 -406 -240 -524 -415 -144 -214 -172 -426 -81 -615 91 -188 367 -448
744 -702 72 -48 133 -90 136 -93 6 -6 30 -20 125 -73 74 -41 184 -81 250 -92
47 -7 215 -8 236 -1 8 3 32 8 54 11 92 12 226 101 312 207 39 48 102 153 133
222 28 60 88 283 135 496 49 224 60 254 125 351 55 80 144 157 246 213 128 69
191 113 254 176 134 133 191 277 156 394 -18 59 -38 78 -85 81 -47 3 -111 -27
-194 -91 -100 -77 -236 -94 -331 -41 -106 59 -106 148 0 312 19 30 139 195
239 330 73 98 1402 1907 1495 2035 42 58 89 128 105 156 15 28 42 61 60 72 17
12 40 30 51 39 29 27 172 135 229 173 91 62 136 127 171 245 27 94 27 94 156
140 62 22 88 62 88 138 0 65 -14 100 -47 122 -51 34 -69 35 -119 9 -48 -26
-66 -26 -44 1 7 8 10 25 6 40 -9 35 -59 35 -82 0z m-2655 -3246 c17 -6 31 -16
31 -22 0 -7 -41 -63 -91 -125 -50 -62 -88 -119 -86 -127 6 -13 74 -69 210
-173 69 -53 83 -55 120 -24 15 14 17 13 17 -6 0 -32 0 -34 21 -74 39 -76 146
-130 245 -123 95 6 188 48 293 133 47 38 104 62 131 55 10 -3 26 -19 35 -37
25 -46 16 -120 -24 -199 -69 -135 -178 -230 -416 -362 -136 -75 -250 -218
-285 -355 -25 -102 -41 -140 -59 -140 -24 0 -64 43 -51 56 5 5 11 23 14 40 7
40 -26 91 -78 120 -44 25 -77 23 -119 -7 l-27 -20 -80 62 -80 62 21 34 c17 27
19 36 9 48 -21 25 -449 345 -462 345 -6 0 -24 -12 -39 -26 l-27 -25 -77 63
c-115 93 -114 90 -66 183 141 272 485 571 738 640 60 17 140 18 182 4z m-494
-1049 c113 -83 207 -155 210 -159 2 -5 -17 -37 -42 -72 -26 -35 -72 -98 -102
-139 -121 -166 -193 -259 -206 -264 -12 -4 -435 307 -435 320 0 8 22 48 29 54
3 3 40 50 80 105 41 55 80 105 85 112 6 6 43 54 81 107 39 53 76 93 83 91 6
-2 104 -72 217 -155z m497 -329 c36 -14 78 -61 78 -89 0 -13 -10 -41 -22 -61
-18 -31 -213 -297 -228 -311 -3 -3 -75 -98 -160 -212 -148 -197 -180 -230
-225 -233 -28 -2 -71 21 -89 47 -34 48 -22 77 87 222 56 75 111 149 122 163
18 25 246 328 298 397 62 81 89 96 139 77z"/>
<path d="M2755 3294 c-37 -37 -21 -57 141 -179 86 -64 164 -118 175 -120 20
-4 49 29 49 56 0 10 -32 41 -72 70 -40 30 -75 56 -78 59 -19 22 -164 122 -180
125 -11 2 -27 -3 -35 -11z"/>
<path d="M2276 2691 c-10 -11 -18 -31 -18 -44 0 -15 48 -92 126 -201 138 -191
155 -205 204 -169 50 37 43 56 -95 249 -121 169 -130 179 -164 182 -25 2 -40
-3 -53 -17z"/>
<path d="M2878 2079 c-39 -22 -12 -84 33 -77 32 5 45 31 31 62 -12 27 -35 32
-64 15z"/>
<path d="M2712 1893 c-31 -28 -35 -56 -11 -86 40 -51 109 -25 109 41 0 53 -58
79 -98 45z"/>
<path d="M2438 1530 c-23 -17 -27 -33 -19 -72 3 -17 35 -38 57 -38 31 0 64 33
64 65 0 27 -35 65 -61 65 -9 0 -28 -9 -41 -20z"/>
<path d="M5573 6829 c-39 -14 -54 -76 -19 -80 50 -7 75 7 76 42 0 26 -32 48
-57 38z"/>
<path d="M542 832 c-32 -25 -41 -89 -15 -120 27 -34 91 -40 121 -12 22 20 30
50 14 50 -5 0 -19 -12 -31 -26 -18 -20 -28 -24 -49 -19 -33 8 -42 21 -42 62 0
24 7 37 25 49 23 15 65 12 65 -6 0 -12 29 -20 35 -10 3 5 -3 18 -15 30 -25 25
-77 26 -108 2z"/>
<path d="M1093 843 c-7 -3 -13 -11 -13 -18 0 -7 -6 -16 -12 -19 -10 -5 -10 -7
0 -12 6 -3 12 -23 12 -44 0 -21 3 -45 6 -54 7 -17 54 -22 54 -6 0 6 -7 10 -15
10 -11 0 -15 12 -15 45 0 33 4 45 15 45 8 0 15 5 15 10 0 6 -6 10 -14 10 -8 0
-16 8 -18 18 -2 11 -9 17 -15 15z"/>
<path d="M1400 818 c0 -25 -3 -29 -12 -20 -32 32 -88 -1 -88 -51 0 -42 31 -65
84 -65 l46 1 0 84 c0 67 -3 83 -15 83 -10 0 -15 -10 -15 -32z m-10 -47 c15
-30 12 -49 -11 -61 -25 -14 -49 2 -49 34 0 43 41 61 60 27z"/>
<path d="M1530 767 l0 -84 49 -1 c55 -1 68 8 77 55 8 43 -26 78 -67 69 -26 -5
-29 -3 -29 19 0 16 -6 25 -15 25 -12 0 -15 -16 -15 -83z m88 11 c30 -30 -2
-93 -36 -71 -21 13 -27 50 -12 69 15 17 32 18 48 2z"/>
<path d="M1890 765 l0 -85 60 0 c46 0 60 3 60 14 0 11 -11 14 -45 12 l-45 -3
0 74 c0 58 -3 73 -15 73 -12 0 -15 -16 -15 -85z"/>
<path d="M2040 840 c0 -5 7 -10 15 -10 8 0 15 5 15 10 0 6 -7 10 -15 10 -8 0
-15 -4 -15 -10z"/>
<path d="M2100 765 c0 -69 3 -85 15 -85 12 0 15 16 15 85 0 69 -3 85 -15 85
-12 0 -15 -16 -15 -85z"/>
<path d="M2160 840 c0 -5 7 -10 15 -10 8 0 15 5 15 10 0 6 -7 10 -15 10 -8 0
-15 -4 -15 -10z"/>
<path d="M2720 765 l0 -85 60 0 c45 0 60 4 60 14 0 10 -12 14 -42 13 l-43 -1
-3 72 c-2 55 -6 72 -17 72 -12 0 -15 -17 -15 -85z"/>
<path d="M3350 765 l0 -85 65 0 c37 0 65 4 65 10 0 11 -16 13 -67 10 -31 -1
-33 1 -33 29 0 30 1 31 45 31 25 0 45 5 45 10 0 11 -17 13 -62 10 -24 -1 -28
2 -28 25 0 25 2 26 47 24 30 -2 48 1 51 9 3 9 -15 12 -62 12 l-66 0 0 -85z"/>
<path d="M3590 767 l0 -84 50 -1 c42 -1 53 3 66 22 36 57 -29 139 -74 94 -9
-9 -12 -5 -12 20 0 22 -5 32 -15 32 -12 0 -15 -16 -15 -83z m90 9 c28 -34 -11
-94 -44 -67 -21 18 -20 57 2 70 23 14 28 13 42 -3z"/>
<path d="M690 744 c0 -50 3 -64 15 -64 11 0 15 12 15 44 0 37 5 48 27 64 l26
19 -41 0 -42 0 0 -63z"/>
<path d="M790 790 c-56 -56 21 -143 86 -96 26 20 10 32 -21 16 -20 -11 -27
-11 -40 0 -23 19 -18 32 13 30 59 -4 72 -1 65 18 -19 52 -67 68 -103 32z m68
-17 c2 -9 -7 -13 -28 -13 -28 0 -31 2 -20 15 15 18 41 16 48 -2z"/>
<path d="M929 790 c-23 -19 -23 -19 -3 -20 11 0 25 5 31 11 13 13 43 5 43 -10
0 -5 -18 -12 -40 -16 -27 -4 -41 -13 -45 -26 -11 -33 11 -48 69 -46 l53 1 -5
51 c-2 27 -9 56 -14 63 -15 18 -63 15 -89 -8z m71 -64 c0 -18 -39 -31 -52 -18
-15 15 0 32 28 32 14 0 24 -6 24 -14z"/>
<path d="M1180 790 c-11 -11 -20 -31 -20 -45 0 -53 69 -85 105 -49 22 22 11
30 -20 14 -20 -11 -27 -11 -40 0 -24 20 -18 29 23 28 58 -1 62 1 55 20 -19 52
-67 68 -103 32z m54 -6 c26 -10 18 -24 -14 -24 -29 0 -38 9 -23 23 8 9 17 9
37 1z"/>
<path d="M1675 793 c4 -10 15 -42 25 -70 19 -52 19 -53 -1 -63 -24 -14 -25
-30 0 -30 25 0 35 14 65 94 30 80 31 86 11 86 -8 0 -15 -8 -15 -18 0 -10 -4
-22 -9 -28 -5 -5 -11 -18 -13 -29 l-5 -20 -7 20 c-5 11 -12 32 -18 48 -6 15
-17 27 -25 27 -10 0 -13 -6 -8 -17z"/>
<path d="M2040 745 c0 -51 3 -65 15 -65 12 0 15 14 15 65 0 51 -3 65 -15 65
-12 0 -15 -14 -15 -65z"/>
<path d="M2160 745 c0 -51 3 -65 15 -65 12 0 15 14 15 65 0 51 -3 65 -15 65
-12 0 -15 -14 -15 -65z"/>
<path d="M2225 790 c-18 -19 -17 -20 3 -20 12 0 22 5 22 11 0 14 42 7 47 -8 3
-8 -10 -15 -36 -19 -28 -4 -42 -13 -47 -26 -10 -32 12 -47 70 -45 l53 1 -5 51
c-2 29 -11 55 -20 63 -24 18 -67 15 -87 -8z m75 -64 c0 -16 -41 -29 -53 -17
-14 14 2 31 29 31 14 0 24 -6 24 -14z"/>
<path d="M2360 744 c0 -50 3 -64 15 -64 11 0 15 12 15 49 0 35 4 51 16 55 26
10 34 -3 34 -55 0 -37 4 -49 15 -49 11 0 15 13 15 54 0 63 -10 74 -67 73 l-43
0 0 -63z"/>
<path d="M2520 790 c-11 -11 -20 -31 -20 -45 0 -53 69 -85 105 -49 22 22 11
30 -20 14 -20 -11 -27 -11 -40 0 -26 22 -17 31 30 27 53 -4 63 10 34 47 -25
31 -61 34 -89 6z m68 -17 c2 -9 -7 -13 -27 -13 -31 0 -42 14 -18 23 19 8 40 3
45 -10z"/>
<path d="M2883 803 c-7 -2 -13 -12 -13 -20 0 -11 5 -13 18 -8 27 12 55 11 59
-2 2 -6 -12 -14 -36 -18 -43 -7 -62 -35 -41 -60 16 -19 123 -17 115 3 -3 7 -5
29 -5 47 0 19 -7 41 -16 49 -15 15 -55 20 -81 9z m55 -94 c-19 -13 -43 -6 -43
11 0 20 49 31 53 12 2 -8 -2 -19 -10 -23z"/>
<path d="M3019 794 c-18 -21 -1 -46 40 -58 17 -5 31 -13 31 -18 0 -18 -29 -19
-54 -3 -21 14 -26 15 -26 3 0 -36 58 -51 94 -25 27 20 16 49 -24 62 -19 6 -35
16 -34 21 1 13 34 18 34 5 0 -6 7 -11 15 -11 18 0 19 12 3 28 -17 17 -63 15
-79 -4z"/>
<path d="M3149 794 c-18 -21 -1 -46 40 -58 17 -5 31 -13 31 -18 0 -17 -31 -20
-48 -5 -11 10 -23 13 -31 8 -10 -7 -8 -12 10 -25 28 -19 59 -21 83 -3 27 20
16 49 -24 62 -19 6 -35 16 -34 21 1 13 34 18 34 5 0 -6 10 -11 22 -11 20 0 21
1 3 20 -22 24 -67 26 -86 4z"/>
<path d="M3500 745 c0 -50 3 -65 14 -65 11 0 16 14 18 48 2 38 7 49 26 57 12
5 22 13 22 17 0 12 -25 9 -38 -4 -9 -9 -12 -9 -12 0 0 7 -7 12 -15 12 -12 0
-15 -14 -15 -65z"/>
<path d="M3760 790 c-11 -11 -20 -33 -20 -49 0 -51 69 -81 105 -45 22 22 11
30 -20 14 -20 -11 -27 -11 -40 0 -25 21 -17 29 30 27 53 -2 62 11 34 47 -25
31 -61 34 -89 6z m64 -15 c4 -11 -2 -15 -24 -15 -30 0 -41 14 -17 23 22 10 35
7 41 -8z"/>
<path d="M533 573 c-4 -10 -11 -22 -17 -26 -8 -6 -7 -10 2 -14 7 -3 12 -25 12
-59 0 -41 4 -54 15 -54 11 0 15 13 15 54 0 34 5 56 13 59 9 4 8 8 -3 16 -12 9
-12 11 3 17 9 3 14 10 11 15 -9 16 -44 10 -51 -8z"/>
<path d="M1120 505 c0 -69 3 -85 15 -85 12 0 15 14 15 63 l0 62 38 -62 c22
-38 44 -63 55 -63 15 0 17 11 17 85 0 69 -3 85 -15 85 -12 0 -15 -14 -15 -62
l0 -61 -40 61 c-56 88 -70 83 -70 -23z"/>
<path d="M1800 505 c0 -69 3 -85 15 -85 10 0 15 11 15 35 0 35 0 35 45 35 50
0 72 23 59 63 -10 31 -22 37 -81 37 l-53 0 0 -85z m88 59 c17 -3 22 -10 20
-27 -2 -18 -11 -23 -40 -25 -36 -3 -38 -2 -38 26 0 30 12 35 58 26z"/>
<path d="M2200 580 c0 -5 7 -10 15 -10 8 0 15 5 15 10 0 6 -7 10 -15 10 -8 0
-15 -4 -15 -10z"/>
<path d="M2563 583 c-7 -3 -13 -11 -13 -18 0 -7 -6 -16 -12 -18 -10 -4 -10 -7
-1 -14 6 -5 13 -31 15 -58 3 -46 5 -50 31 -53 29 -4 37 12 12 22 -10 3 -15 19
-15 46 0 29 4 40 15 40 8 0 15 5 15 10 0 6 -6 10 -14 10 -8 0 -16 8 -18 18 -2
11 -9 17 -15 15z"/>
<path d="M600 484 c0 -49 3 -64 14 -64 11 0 16 14 18 47 2 38 8 50 26 59 28
14 19 21 -25 22 l-33 1 0 -65z"/>
<path d="M700 530 c-11 -11 -20 -31 -20 -45 0 -14 9 -34 20 -45 11 -11 31 -20
45 -20 14 0 34 9 45 20 11 11 20 31 20 45 0 14 -9 34 -20 45 -11 11 -31 20
-45 20 -14 0 -34 -9 -45 -20z m68 -12 c32 -32 1 -89 -37 -68 -26 13 -28 55 -3
69 22 13 26 13 40 -1z"/>
<path d="M830 485 c0 -51 3 -65 15 -65 11 0 15 12 15 49 0 35 4 51 16 55 26
10 34 -3 34 -55 0 -37 4 -49 15 -49 11 0 15 12 15 49 0 35 4 51 16 55 26 10
34 -3 34 -55 0 -37 4 -49 15 -49 19 0 21 100 3 118 -14 14 -54 16 -63 2 -4 -6
-13 -5 -25 3 -16 9 -24 9 -40 -1 -12 -7 -20 -8 -20 -2 0 5 -7 10 -15 10 -12 0
-15 -14 -15 -65z"/>
<path d="M1310 530 c-11 -11 -20 -31 -20 -45 0 -14 9 -34 20 -45 11 -11 31
-20 45 -20 14 0 34 9 45 20 11 11 20 31 20 45 0 14 -9 34 -20 45 -11 11 -31
20 -45 20 -14 0 -34 -9 -45 -20z m68 -12 c30 -30 -2 -93 -36 -71 -23 14 -26
47 -7 67 20 19 27 20 43 4z"/>
<path d="M1440 504 c0 -68 11 -82 65 -82 l45 1 0 64 c0 49 -3 63 -15 63 -12 0
-15 -11 -13 -46 1 -30 -4 -49 -13 -55 -25 -16 -34 -4 -37 49 -2 37 -7 52 -18
52 -10 0 -14 -12 -14 -46z"/>
<path d="M1580 485 c0 -51 3 -65 15 -65 11 0 15 12 15 49 0 35 4 51 16 55 26
10 34 -3 34 -55 0 -38 4 -49 15 -49 13 0 15 11 13 56 -3 66 -23 88 -58 66 -12
-7 -20 -8 -20 -2 0 5 -7 10 -15 10 -12 0 -15 -14 -15 -65z"/>
<path d="M1960 484 c0 -49 3 -64 14 -64 11 0 16 14 18 47 2 39 7 50 28 60 14
7 23 13 20 14 -3 1 -22 3 -42 4 l-38 4 0 -65z"/>
<path d="M2070 537 c-54 -27 -27 -117 35 -117 32 0 65 33 65 65 0 29 -32 65
-57 65 -10 0 -29 -6 -43 -13z m58 -19 c16 -16 15 -53 -2 -67 -23 -19 -56 4
-56 39 0 26 6 31 41 39 3 0 10 -4 17 -11z"/>
<path d="M2200 471 c0 -54 -4 -81 -12 -84 -7 -2 -9 -8 -5 -13 4 -4 16 -3 25 2
24 16 31 174 7 174 -12 0 -15 -15 -15 -79z"/>
<path d="M2270 530 c-56 -56 21 -143 86 -96 26 20 10 32 -21 16 -20 -11 -27
-11 -40 0 -25 21 -17 29 27 27 34 -2 43 2 46 16 5 25 -26 57 -55 57 -12 0 -32
-9 -43 -20z m68 -17 c2 -9 -7 -13 -27 -13 -31 0 -42 14 -18 23 19 8 40 3 45
-10z"/>
<path d="M2410 530 c-39 -39 -11 -110 43 -110 22 0 57 27 57 43 0 13 -23 7
-35 -9 -18 -26 -57 -1 -53 33 4 34 35 54 51 33 16 -20 37 -23 37 -5 0 35 -69
46 -100 15z"/>
</g>
</svg>
